<svg class="si-glyph si-glyph-leaf" width="380" height="271" fill="#000000" version="1.1" viewBox="0 0 7.6 5.42" xmlns="http://www.w3.org/2000/svg" xmlns:xlink="http://www.w3.org/1999/xlink">
 <defs>
  <style>
    @font-face {
      font-family: 'Amsterdam Handwriting';
      src: url('/src/assets/fonts/AmsterdamhandwritingRegular-6Y1Vo.otf') format('opentype'),
           url('/src/assets/fonts/AmsterdamHandwriting-ywgW2.ttf') format('truetype');
      font-weight: normal;
      font-style: normal;
      font-display: swap;
    }
    @font-face {
      font-family: 'Georgia';
      src: url('/src/assets/fonts/georgia.ttf') format('truetype');
      font-weight: normal;
      font-style: normal;
      font-display: swap;
    }
  </style>
  <linearGradient id="b">
   <stop stop-color="#999" offset="0"/>
   <stop stop-color="#999" stop-opacity="0" offset="1"/>
  </linearGradient>
  <linearGradient id="a" x1=".11322" x2="15.928" y1="7.9517" y2="7.9517" gradientUnits="userSpaceOnUse" xlink:href="#b"/>
 </defs>
 <text transform="matrix(1.4375 .013254 .03918 1.6369 -2.313 -7.3961)" x="2.3631279" y="6.8112583" fill="#E8A298" fill-rule="evenodd" font-family="'Felix Titling'" font-size="1.92px" letter-spacing=".10361px" stroke-dasharray="0.178393, 0.0148661" stroke-width=".014866" word-spacing=".034407px" style="font-variant-caps:normal;font-variant-east-asian:normal;font-variant-ligatures:normal;font-variant-numeric:normal;inline-size:5.29452;line-height:0;paint-order:markers stroke fill;white-space:pre" xml:space="preserve"/>
 <g transform="translate(-4.18,-5.44)">
  <g id="c" transform="matrix(-.0033752 -.14433 .15959 -.003394 9.0593 10.505)">
   <title>97</title>
   <g fill="url(#a)" fill-rule="evenodd">
    <g fill="url(#a)">
     <path class="si-glyph-fill" d="m12.295 14.201c0.135-0.113 0.262-0.232 0.381-0.354-1.989-0.903-3.498-1.999-4.858-3.108-1.624-4e-3 -3.298-0.418-4.155-1.477 1.277 0.643 2.621 0.646 3.074 0.585-3.839-3.466-4.902-6.855-4.902-6.855 1.314 2.06 2.701 3.652 4.059 4.916-0.569-1.088-0.236-3.1-0.236-3.1 1.107 3.898 1.237 3.96 1.164 3.994 0.9 0.729 1.875 1.414 2.687 1.937-0.292-0.68-0.499-1.671-0.472-3.369 0 0 0.722 3.562 1.856 4.439 0.903 0.521 1.698 0.925 2.314 1.232 0.976-1.456 0.981-5.338-1.411-6.897-2.578-1.682-6.925-1.746-11.322-6.048-1.315-1.287 1.129 10.036 4.67 13.193 2.176 1.945 5.008 2.701 7.151 0.912z"/>
     <path class="si-glyph-fill" d="m11.266 14.064s1.18 0.613 2.534 1.211 2.003 0.477 2.079 0.625c0.078 0.15 0.039-1.642 0.039-1.642s-1.828 0.433-3.863-0.696z"/>
    </g>
   </g>
  </g>
  <text transform="scale(1.2453 .80301)" x="3.5752685" y="11.516699" fill="#999999" fill-rule="evenodd" font-family="Parisienne" font-size="1.0674px" stroke-dasharray="0.0667108, 0.00555927" stroke-width=".0055593" style="font-variant-caps:normal;font-variant-east-asian:normal;font-variant-ligatures:normal;font-variant-numeric:normal;paint-order:markers stroke fill" xml:space="preserve"><tspan x="3.5752685" y="11.516699" fill="#E8A298" font-family="'Amsterdam Handwriting'" font-size="1.0674px" stroke-width=".0055593" style="font-variant-caps:normal;font-variant-east-asian:normal;font-variant-ligatures:normal;font-variant-numeric:normal">Popescu</tspan></text>
  <text transform="scale(1.0434 .95837)" x="4.2668304" y="10.99718" fill="#999999" fill-rule="evenodd" font-family="Georgia" font-size=".63555px" letter-spacing=".082383px" stroke-dasharray="0.0826504, 0.00688758" stroke-width=".0068876" style="font-variant-caps:normal;font-variant-east-asian:normal;font-variant-ligatures:normal;font-variant-numeric:normal;line-height:0;paint-order:markers stroke fill" xml:space="preserve"><tspan x="4.2668304" y="10.99718" fill="#cccccc" font-family="Georgia" font-size=".63555px" letter-spacing=".082383px" stroke-width=".0068876" style="font-variant-caps:normal;font-variant-east-asian:normal;font-variant-ligatures:normal;font-variant-numeric:normal">PSIHOLOG</tspan></text>
  <path d="m10.218 8.3718c-0.0132-0.0024-0.02175-0.00662-0.03111-0.01538-0.02031-0.018995-0.0269-0.043724-0.02565-0.096186 8e-4 -0.033548 4e-3 -0.060039 0.01222-0.099765 0.01517-0.073702 0.03151-0.12168 0.09066-0.26619 0.04145-0.10128 0.06514-0.16652 0.0822-0.2264 0.01557-0.054641 0.02091-0.080851 0.02324-0.11405 0.0017-0.0249-0.0014-0.047806-0.0086-0.062951-0.0046-0.0097-0.02371-0.037618-0.03641-0.053248-0.0062-0.00765-0.02279-0.028024-0.03683-0.04528l-0.025514-0.031375 0.1465-2.32e-4c0.08058-1.2e-4 0.21235-1.2e-4 0.29284 0l0.14633 2.32e-4 -0.01197 0.020125c-0.06191 0.1041-0.12589 0.22931-0.16663 0.32611-0.01004 0.023843-0.0199 0.048779-0.01962 0.049605 1.4e-4 4.3e-4 3e-3 -0.00523 0.0063-0.012578 0.0033-0.00735 0.0063-0.013361 0.0067-0.01336 3.56e-4 6e-7 0.0056 0.00528 0.01169 0.011722 0.0061 0.00645 0.01618 0.017175 0.02246 0.02384l0.01142 0.012119-0.0078 0.017153c-0.01324 0.029152-0.02121 0.048202-0.03955 0.09445-0.03387 0.085425-0.05654 0.13802-0.08644 0.20057-0.0062 0.012959-0.01144 0.023384-0.01166 0.023167-6.66e-4 -6.66e-4 0.0016-0.030068 0.0039-0.050845 0.0096-0.086587 0.03314-0.17398 0.0805-0.29867 0.0013-0.00352 2e-3 -0.00599 0.0015-0.00549-9.32e-4 9.42e-4 -0.01107 0.023586-0.02988 0.066777-0.05295 0.12154-0.11412 0.24837-0.15573 0.32291-0.03546 0.063519-0.07794 0.1237-0.11363 0.161-0.03702 0.038683-0.06231 0.055426-0.09326 0.061732-0.01055 0.00215-0.0278 0.00237-0.03816 4.94e-4z" fill-opacity="0" stroke-dasharray="0.0109771, 0.000914756" stroke-width=".00091476" style="paint-order:markers stroke fill"/>
  <text transform="scale(.95031 1.0523)" x="12.134741" y="7.4337063" direction="rtl" fill="#E8A298" fill-rule="evenodd" font-family="Georgia" font-size="2.6106px" letter-spacing=".149px" stroke-dasharray="0.212762, 0.0177302" stroke-width=".01773" word-spacing="0px" style="font-variant-caps:normal;font-variant-east-asian:normal;font-variant-ligatures:normal;font-variant-numeric:normal;line-height:0;paint-order:markers stroke fill" xml:space="preserve"><tspan x="12.283741" y="7.4337063" dx="0" dy="0" rotate="0 0 0 0 0 0" font-family="Georgia" font-size="2.6106px" letter-spacing=".149px" stroke-width=".01773" word-spacing="0px" style="font-variant-caps:normal;font-variant-east-asian:normal;font-variant-ligatures:normal;font-variant-numeric:normal">Maria</tspan></text>
 </g>
</svg>
